<svg width="24" height="20" viewBox="0 0 24 20" fill="none" xmlns="http://www.w3.org/2000/svg">
<path d="M23 9.01L18 9C17.45 9 17 9.45 17 10V19C17 19.55 17.45 20 18 20H23C23.55 20 24 19.55 24 19V10C24 9.45 23.55 9.01 23 9.01ZM23 18H18V11H23V18ZM20 0H2C0.9 0 0 0.9 0 2V14C0 15.1 0.9 16 2 16H9V18H8C7.45 18 7 18.45 7 19C7 19.55 7.45 20 8 20H14C14.55 20 15 19.55 15 19C15 18.45 14.55 18 14 18H13V16H14C14.55 16 15 15.55 15 15C15 14.45 14.55 14 14 14H3C2.45 14 2 13.55 2 13V3C2 2.45 2.45 2 3 2H19C19.55 2 20 2.45 20 3V6C20 6.55 20.45 7 21 7C21.55 7 22 6.55 22 6V2C22 0.9 21.1 0 20 0ZM11.97 7L11 4L10.03 7H7L9.47 8.76L8.53 11.67L11 9.87L13.47 11.67L12.53 8.76L15 7H11.97Z" fill="white"/>
</svg>
