<svg width="32" height="38" viewBox="0 0 32 38" fill="none" xmlns="http://www.w3.org/2000/svg">
<path d="M13.9519 8.21015V6.76683C12.7726 5.62177 11.9738 4.0996 10.6231 3.13625C9.08717 2.04262 7.2016 1.64836 5.35031 1.92263C3.75958 2.15918 1.96657 2.53629 0.40669 1.96377C0.26613 1.91234 0.132425 2.04947 0.187278 2.18661C0.660385 3.38309 2.54253 7.04109 7.72956 7.44221C11.5761 7.74047 13.1292 7.95645 13.9519 8.21015Z" fill="white" fill-opacity="0.36"/>
<path d="M31.5085 1.96718C29.9487 2.53971 28.1557 2.1626 26.5649 1.92604C24.7136 1.65178 22.8281 2.04603 21.2922 3.13967C19.9414 4.09959 19.1426 5.62176 17.9633 6.77025V8.21357C18.7861 7.95987 20.3391 7.74046 24.1856 7.4422C29.3692 7.04109 31.2514 3.38308 31.7314 2.19002C31.7862 2.05289 31.6491 1.91576 31.5085 1.96718Z" fill="white" fill-opacity="0.36"/>
<path d="M23.4434 9.53003C20.2146 9.53003 17.4039 11.3233 15.954 13.967C14.5007 11.3233 11.6935 9.53003 8.46463 9.53003C5.37291 9.53003 2.56568 11.3405 1.08494 14.0219C-0.676866 17.2073 -0.0736026 20.7185 1.33515 23.9142C1.33858 23.921 1.34201 23.9279 1.34544 23.9348H8.34124L9.94537 21.0442C10.271 20.4579 11.1176 20.4545 11.4432 21.0408L14.3875 26.3076L18.9429 16.717C19.2685 16.0278 20.266 16.0758 20.523 16.7924L23.1143 23.9313H30.5592C30.5626 23.9245 30.566 23.9176 30.5694 23.9108C31.9816 20.715 32.5815 17.2038 30.8231 14.0184C29.3424 11.3405 26.5317 9.53003 23.4434 9.53003Z" fill="white"/>
<path d="M21.0955 25.9544L19.5051 21.5654L15.2891 30.4428C14.9909 31.0738 14.1065 31.1011 13.7638 30.4943L10.6995 25.0115L10.1065 26.0779C9.95571 26.3488 9.66776 26.5202 9.35588 26.5202H2.89136C6.43553 31.3789 13.3148 36.3817 15.3645 37.8149C15.7176 38.0618 16.1906 38.0618 16.5437 37.8149C18.5934 36.3782 25.4726 31.3755 29.0168 26.5202H21.9044C21.5411 26.5202 21.2189 26.2939 21.0955 25.9544Z" fill="white"/>
<ellipse cx="16.0927" cy="2.32723" rx="2.32723" ry="2.32723" fill="white"/>
<rect x="15.3712" y="3.53735" width="1.33816" height="17.2215" fill="white"/>
</svg>
